<?xml version="1.0" encoding="UTF-8" standalone="no"?>
<!DOCTYPE svg PUBLIC "-//W3C//DTD SVG 1.1//EN" "http://www.w3.org/Graphics/SVG/1.1/DTD/svg11.dtd">
<svg width="100%" height="100%" viewBox="0 0 8334 8334" version="1.1" xmlns="http://www.w3.org/2000/svg" xmlns:xlink="http://www.w3.org/1999/xlink" xml:space="preserve" xmlns:serif="http://www.serif.com/" style="fill-rule:evenodd;clip-rule:evenodd;stroke-linejoin:round;stroke-miterlimit:2;">
    <g>
        <g transform="matrix(1,0,0,1,-60.3445,0.0014066)">
            <path d="M3460.45,2937.35C3519.55,3044.77 2980.27,1904.93 2995.49,1502.96C3021.34,820.123 3596.7,286.74 4279.54,312.595C4962.37,338.45 5495.75,913.814 5469.9,1596.65C5440.19,2381.29 4941.6,3095.14 4941.6,3095.14C5345.59,2628.91 5676.29,1882.85 6019.53,1705.84C6562.91,1425.6 7422.43,1572.82 7779.99,2362.96C8101.67,3073.81 7772.19,3655.11 7228.81,3935.34C6922.35,4093.38 6193.53,4134.14 5638.43,4166.66C6206.58,4196.43 6344.82,4159.61 7035.01,4348.19C7891.33,4582.16 8302.39,5093.16 7779.99,6034.76C7297.06,6905.22 6614.4,6759.6 6019.53,6383.28C5515.24,6064.27 5423.85,5862.07 5016.86,5328.24C5016.86,5328.24 5534.52,6292.66 5575.02,6724.14C5635.69,7370.53 5160.17,7944.57 4513.78,8005.25C3867.39,8065.92 3293.35,7590.39 3232.68,6944C3200.27,6598.79 3623.47,5431.34 3599.37,5328.24C3599.37,5328.24 3391.7,6225.68 2757.18,6677.16C2194.87,7077.28 1413.5,6945.59 1013.38,6383.28C613.266,5820.96 744.953,5039.59 1307.27,4639.48C1558.85,4460.46 2327.32,4239.44 2838.81,4166.66C2838.81,4166.66 1528.4,4247.22 1252.92,4103.27C622.066,3773.62 377.526,2993.81 707.178,2362.96C1036.83,1732.1 1816.64,1487.56 2447.49,1817.21C3129.7,2173.7 3460.45,2937.35 3460.45,2937.35Z" style="fill:rgb(255,178,0);fill-rule:nonzero;"/>
        </g>
        <g transform="matrix(0.982099,0,0,1.28618,-120.565,-1381.61)">
            <ellipse cx="4365.38" cy="4313.77" rx="1166.72" ry="890.882" style="fill:white;"/>
        </g>
        <path d="M4958.71,4152.45C4931.6,4615.28 4594.62,4984.77 4176.97,4990.75L4166.67,4990.82C3744.28,4990.82 3402,4619.12 3374.62,4152.45L3381.13,4152.45C3414.44,4152.45 3441.49,4125.4 3441.49,4092.09C3441.49,4058.77 3414.44,4031.73 3381.13,4031.73L3243.1,4031.73C3209.78,4031.73 3182.74,4058.77 3182.74,4092.09C3182.74,4125.4 3209.78,4152.45 3243.1,4152.45L3252.95,4152.45C3281.06,4689.44 3681.28,5112.31 4166.67,5112.31L4178.45,5112.23C4658.56,5105.43 5052.54,4685.04 5080.39,4152.45L5090.24,4152.45C5123.55,4152.45 5150.6,4125.4 5150.6,4092.09C5150.6,4058.77 5123.55,4031.73 5090.24,4031.73L4952.2,4031.73C4918.89,4031.73 4891.85,4058.77 4891.85,4092.09C4891.85,4125.4 4918.89,4152.45 4952.2,4152.45L4958.71,4152.45ZM3787.51,3499.29C3881.42,3499.29 3957.66,3648.35 3957.66,3831.95C3957.66,4015.55 3881.42,4164.61 3787.51,4164.61C3693.61,4164.61 3617.37,4015.55 3617.37,3831.95C3617.37,3648.35 3693.61,3499.29 3787.51,3499.29ZM4545.82,3499.29C4639.72,3499.29 4715.96,3648.35 4715.96,3831.95C4715.96,4015.55 4639.72,4164.61 4545.82,4164.61C4451.91,4164.61 4375.67,4015.55 4375.67,3831.95C4375.67,3648.35 4451.91,3499.29 4545.82,3499.29Z" style="fill-rule:nonzero;"/>
    </g>
</svg>
