<?xml version="1.0" encoding="UTF-8" standalone="no"?>
<!DOCTYPE svg PUBLIC "-//W3C//DTD SVG 1.1//EN" "http://www.w3.org/Graphics/SVG/1.1/DTD/svg11.dtd">
<svg width="100%" height="100%" viewBox="0 0 8334 8334" version="1.1" xmlns="http://www.w3.org/2000/svg" xmlns:xlink="http://www.w3.org/1999/xlink" xml:space="preserve" xmlns:serif="http://www.serif.com/" style="fill-rule:evenodd;clip-rule:evenodd;stroke-linecap:round;stroke-linejoin:round;stroke-miterlimit:1.5;">
    <g id="Layer2">
    </g>
    <g transform="matrix(1,0,0,1,-60.3445,0.0014066)">
        <path d="M3232.68,2590.9C3291.77,2698.32 2980.27,1904.93 2995.49,1502.96C3021.34,820.123 3596.7,286.74 4279.54,312.595C4962.37,338.45 5495.75,913.814 5469.9,1596.65C5440.19,2381.29 5243.17,2590.9 5243.17,2590.9C5647.17,2124.67 5690.07,2111.09 6019.53,1905.68C6538.34,1582.21 7231.59,1839.1 7511.82,2382.49C7792.05,2925.87 7578.4,3594.55 7035.01,3874.78C6728.56,4032.82 6631.09,4134.14 6075.99,4166.66C6644.14,4196.43 6762.31,4240.94 7077.43,4401.48C7619.88,4677.84 7835.92,5342.6 7559.57,5885.06C7283.21,6427.51 6618.44,6643.55 6075.99,6367.19C5686.56,6168.8 5650.16,6263.2 5243.17,5729.37C5243.17,5729.37 5534.52,6292.66 5575.02,6724.14C5635.69,7370.53 5160.17,7944.57 4513.78,8005.25C3867.39,8065.92 3293.35,7590.39 3232.68,6944C3200.27,6598.79 3405.33,5988.16 3381.23,5885.06C3381.23,5885.06 3391.7,6225.68 2757.18,6677.16C2194.87,7077.28 1413.5,6945.59 1013.38,6383.28C613.266,5820.96 744.953,5039.59 1307.27,4639.48C1558.85,4460.46 1824.26,4239.44 2335.75,4166.66C2335.75,4166.66 1528.4,4247.22 1252.92,4103.27C622.066,3773.62 377.526,2993.81 707.178,2362.96C1036.83,1732.1 1816.64,1487.56 2447.49,1817.21C3129.7,2173.7 3232.68,2590.9 3232.68,2590.9Z" style="fill:white;fill-rule:nonzero;"/>
    </g>
    <g transform="matrix(1.56671,0,0,1.56671,-2361.28,-2366.86)">
        <g transform="matrix(0.982099,0,0,1.28618,-120.565,-1381.61)">
            <ellipse cx="4365.38" cy="4313.77" rx="1166.72" ry="890.882" style="fill:rgb(255,204,89);"/>
        </g>
        <g transform="matrix(0.314115,0,0,0.314115,2857.85,2855.79)">
            <g transform="matrix(0.817818,0,0,0.889491,759.092,229.584)">
                <g transform="matrix(1.07605,0,0,1.023,-1081.68,272.281)">
                    <path d="M1785.97,3806.82C1785.97,5660.75 3170.06,7163.65 4877.41,7163.65C6584.76,7163.65 7968.85,5660.75 7968.85,3806.82C7968.85,5660.75 6584.76,7163.65 4877.41,7163.65C3170.06,7163.65 1785.97,5660.75 1785.97,3806.82Z" style="fill:none;stroke:black;stroke-width:432.07px;"/>
                </g>
                <g transform="matrix(0.961692,0.0477392,-0.0459629,0.99886,-314.311,1022.3)">
                    <path d="M1069.06,3096.86L1626.52,3070.22" style="fill:none;stroke:black;stroke-width:454.89px;"/>
                </g>
                <g transform="matrix(0.961692,0.0477392,-0.0459629,0.99886,6338.79,1022.3)">
                    <path d="M1069.06,3096.86L1626.52,3070.22" style="fill:none;stroke:black;stroke-width:454.89px;"/>
                </g>
            </g>
            <g transform="matrix(1.91133,0,0,1.29111,-1060.9,-763.589)">
                <ellipse cx="2103.51" cy="2998.36" rx="283.397" ry="820.248"/>
            </g>
            <g transform="matrix(1.91133,0,0,1.29111,1353.19,-763.589)">
                <ellipse cx="2103.51" cy="2998.36" rx="283.397" ry="820.248"/>
            </g>
        </g>
    </g>
</svg>
