<?xml version="1.0" encoding="UTF-8" standalone="no"?>
<!DOCTYPE svg PUBLIC "-//W3C//DTD SVG 1.1//EN" "http://www.w3.org/Graphics/SVG/1.1/DTD/svg11.dtd">
<svg width="100%" height="100%" viewBox="0 0 8334 8334" version="1.1" xmlns="http://www.w3.org/2000/svg" xmlns:xlink="http://www.w3.org/1999/xlink" xml:space="preserve" xmlns:serif="http://www.serif.com/" style="fill-rule:evenodd;clip-rule:evenodd;stroke-linejoin:round;stroke-miterlimit:2;">
    <g id="Layer3">
        <g transform="matrix(1,0,0,1,15.8806,125.864)">
            <path d="M3950.66,3858.75C3968.12,3864.49 3723.1,3240.08 3641.4,3002.62C3479.46,2531.98 3431.56,1502.8 3950.66,1218.2C4073.55,1150.83 4223.3,1136.22 4355.75,1183.66C4884.29,1372.97 4697.45,2338.72 4590.73,2736.16C4517.02,3010.63 4421.51,3278.78 4315.91,3542.46C4284.64,3620.55 4252.17,3698.09 4218.55,3775.19C4216.07,3780.87 4176.89,3874.27 4178.57,3874.46C4188.02,3875.51 4213.36,3828.95 4217.53,3822.79C4465.47,3455.58 5453.47,1596.03 5998.68,1988.26C6112.76,2070.34 6149.69,2219.89 6149.41,2353.44C6147.81,3114.39 5255.89,3594.35 4661.03,3872.08C4601.93,3899.67 4541.97,3925.37 4482.42,3951.97C4478.36,3953.78 4409.38,3988.24 4410.35,3989.09C4418.51,3996.23 4507.71,3954.44 4517.98,3950.95C5017.37,3781.2 6398.26,3382.54 6774.45,3887.11C6872.88,4019.12 6902.21,4205.76 6837.75,4358.48C6473.29,5222.04 4510.55,4319.22 4499.42,4269.15C4492.58,4238.36 4559.28,4288.99 4589.03,4299.47C5097.6,4478.57 6680.51,5227.77 6013.43,5956.47C5899.7,6080.7 5737.47,6145.04 5569.32,6126.44C4898.62,6052.26 4599.33,5139.87 4399.2,4608.01C4396.99,4602.15 4380.96,4546.14 4372.75,4546.14C4371.63,4546.14 4383.43,4587.89 4384.11,4589.99C4398.25,4634.3 4415.1,4678 4432.24,4721.21C4494.98,4879.39 4564.89,5034.66 4630.37,5191.71C4747.88,5473.55 5446.59,6980.99 4877.38,7077.77C4738.98,7101.3 4588.25,7020.44 4482.01,6939.75C3946.17,6532.78 3918.66,5822.74 4019.95,5215.03C4041.9,5083.34 4069.63,4952.73 4093.38,4821.36C4095.39,4810.23 4121.58,4652.52 4116.83,4653.15C4100.73,4655.3 4088.39,4715.68 4085.15,4726.59C3914.02,5303.27 3799.55,6526.91 3480.51,6956C3391.66,7075.5 3238.8,7158.85 3087.39,7124.68C2920.93,7087.12 2797.48,6931.41 2734.38,6780.99C2393.72,5968.91 3198.43,5254.74 3694.41,4733.11C3768.59,4655.1 3848.66,4580.79 3919.05,4499.36C3922.44,4495.44 3942.14,4474.65 3935.5,4468.02C3912.47,4444.98 3725.04,4566.45 3703.99,4577.96C3138.54,4886.97 1888.13,5487.29 1502.39,4619.84C1420.01,4434.59 1393.17,4215.39 1498.11,4033.15C1813.86,3484.82 2677.34,3924.12 3126.96,4048.24C3347.31,4109.08 3632.41,4123.89 3837.39,4226.38C3846.71,4231.04 3818.31,4218.02 3808.91,4213.53C3557.76,4093.58 3296.98,3997.77 3054.75,3858.75C2678.93,3643.06 1486.98,2773.39 1849.21,2212.7C1918.85,2104.91 2045.8,2066.58 2168.7,2073.18C2806.33,2107.47 3130.81,2773.81 3491.18,3203.32C3630.06,3368.85 3813.88,3692.23 3950.66,3858.75Z" style="fill:rgb(251,178,46);fill-rule:nonzero;"/>
        </g>
        <g transform="matrix(1,0,0,1,15.8806,-45.991)">
            <path d="M3845.2,3654.09C3769.94,3542.54 3548.79,3217.75 3517.89,3180.92C3301.97,2923.58 3098.59,2581.82 2833.91,2340.46C2649.77,2172.55 2436.34,2052.66 2170.57,2038.38C2104.18,2034.81 2036.73,2043.57 1976.41,2067.53C1913.88,2092.37 1858.93,2133.42 1819.93,2193.78C1659.79,2441.67 1782.06,2748.85 2014.99,3036.26C2322.71,3415.95 2817.89,3763 3037.4,3888.99C3110.77,3931.09 3356.92,4049.59 3404.86,4070.89C3311.3,4053.9 3219.18,4037.54 3136.24,4014.64C2872.15,3941.73 2465.99,3761.36 2110.56,3733.08C1844.58,3711.91 1606.68,3774.74 1467.9,4015.75C1411.97,4112.89 1390.96,4219.83 1395.19,4327.21C1399.32,4432.15 1427.63,4537.51 1470.54,4634C1636.25,5006.64 1954.13,5121.04 2312.91,5102.4C2809.14,5076.62 3669.15,4709.09 3669.15,4709.09C3371.59,5022.05 2964.36,5404.3 2755.58,5834.7C2610.49,6133.8 2560.21,6455.9 2702.24,6794.47C2735.28,6873.25 2784.18,6953.35 2846.49,7018.79C2910.91,7086.44 2989.62,7138.36 3079.72,7158.69C3163.16,7177.51 3247.05,7164.27 3322.25,7129.51C3395.65,7095.57 3460.69,7041.07 3508.48,6976.8C3617.01,6830.83 3703.08,6594.96 3775.05,6323.19C3841.09,6073.78 3895.68,5793.83 3946.77,5527.22C3926.23,5803.71 3942.34,6086.7 4025.68,6343C4103.8,6583.25 4240.67,6800.23 4460.93,6967.51C4527.3,7017.91 4610.36,7068.17 4697.26,7095.44C4758.71,7114.72 4822.08,7122.53 4883.22,7112.13C5101.55,7075.01 5158.9,6851.1 5121.88,6557.68C5089.15,6298.27 4986.45,5984.21 4884.79,5717.07L4886.07,5718.84C5060.76,5954.35 5281.39,6129.67 5565.48,6161.09C5655.25,6171.02 5743.42,6158.81 5824.34,6127.54C5905.07,6096.34 5978.58,6046.17 6039.14,5980.01C6337.19,5654.43 6213.67,5324.38 5926.15,5038.51C5789.71,4902.86 5615.93,4777.38 5435.83,4667.74C5605.96,4711.38 5783.23,4745.29 5953.27,4758.95C6362.75,4791.85 6729.25,4705.22 6869.86,4372.04C6904.56,4289.82 6914.17,4198.5 6901.67,4109.95C6889.25,4022 6855.02,3936.85 6802.4,3866.27C6637.19,3644.68 6286.41,3585.98 5895.98,3611.32C5556.61,3633.35 5187.52,3716.6 4892.28,3799.01C5204.95,3641.84 5554.76,3435.56 5810.55,3172.03C6032.29,2943.58 6183.6,2672.24 6184.27,2353.51C6184.45,2268.42 6170.07,2177.29 6132.7,2099.08C6106.69,2044.63 6069.63,1996.37 6019.03,1959.97C5813.04,1811.77 5542.9,1955.46 5274.41,2234.36C4929.07,2593.09 4578.65,3167.22 4358.4,3529.94C4407.74,3405.93 4454.74,3280.92 4498.23,3154.72C4544.79,3019.65 4587.33,2883.22 4624.39,2745.2C4687.49,2510.22 4777.76,2079.07 4735.92,1722.73C4704.79,1457.55 4600.04,1234.13 4367.51,1150.85C4296.51,1125.42 4220.89,1116.57 4146.54,1123.16C4072.41,1129.72 3999.58,1151.63 3933.91,1187.64C3711.43,1309.61 3586.9,1561.79 3531.78,1851.95C3455.01,2256.1 3511.77,2733.02 3608.44,3013.96C3658.64,3159.87 3770.49,3451.84 3845.2,3654.09Z" style="fill:rgb(251,113,170);fill-rule:nonzero;"/>
        </g>
        <g transform="matrix(1,0,0,1,15.8806,-17.9956)">
            <ellipse cx="4166.67" cy="4310.53" rx="536.223" ry="632.625" style="fill:rgb(251,178,46);"/>
        </g>
    </g>
</svg>
