<?xml version="1.0" encoding="UTF-8" standalone="no"?>
<!DOCTYPE svg PUBLIC "-//W3C//DTD SVG 1.1//EN" "http://www.w3.org/Graphics/SVG/1.1/DTD/svg11.dtd">
<svg width="100%" height="100%" viewBox="0 0 8334 8334" version="1.1" xmlns="http://www.w3.org/2000/svg" xmlns:xlink="http://www.w3.org/1999/xlink" xml:space="preserve" xmlns:serif="http://www.serif.com/" style="fill-rule:evenodd;clip-rule:evenodd;stroke-linecap:round;stroke-linejoin:round;stroke-miterlimit:1.5;">
    <g transform="matrix(0.773352,0,0,0.773352,4166.67,3906.68)">
        <g id="Layer1">
            <g id="Untitled-6.svg" serif:id="Untitled 6.svg" transform="matrix(1,0,0,1,-4167,-4167)">
                <g id="Layer4">
                    <g transform="matrix(1,0,0,1,-0.161976,0.458635)">
                        <path d="M3676.42,3500.49C3618.9,3464.39 3549.18,3415.33 3469.92,3357.32C3027.06,3033.19 2299.98,2437.66 1740.25,2181.34C1557.75,2097.77 1391.37,2050.09 1255.93,2053.12C1099.17,2056.61 978.484,2122.46 908.042,2269.48C790.779,2514.23 901.446,2739.48 1155.35,2936.27C1490.94,3196.38 2084.7,3411.31 2610.98,3579.77C2957.6,3690.72 3273.95,3781.44 3461.51,3853.08C3428.03,3853.23 3391.86,3852.46 3355.78,3850.12C2922.44,3821.94 2126.99,3705.93 1456.34,3691.99C1060.28,3683.76 706.661,3712.69 488.718,3810.09C315.858,3887.34 220.56,4006.41 224.623,4171.84C229.936,4388.15 380.731,4524.1 632.166,4592.38C958.081,4680.88 1464.11,4655.3 1972.77,4594.52C2552.52,4525.25 3465.11,4382.07 3465.11,4382.07C3191.85,4501.39 2640.83,4675.29 2118.3,4884.66C1655.59,5070.06 1215.93,5284.85 998.145,5511.55C827.026,5689.66 781.43,5876.64 914.496,6065.28C1068.42,6283.49 1285.64,6342.28 1536.91,6292.7C1876.61,6225.67 2285.08,5947.3 2663.87,5623.67C3070.62,5276.15 3444.01,4878.11 3658.85,4656.47C3567.95,4832.2 3415.57,5080.93 3257.75,5356.71C2992.17,5820.79 2713.06,6359.6 2664.65,6764.04C2628.24,7068.3 2715.86,7301.96 2996.3,7403.11C3179.27,7469.11 3335.75,7388.17 3464.38,7200.35C3626.33,6963.88 3746.24,6545.26 3841.41,6113.44C3949.08,5624.85 4130.87,4798.4 4142.47,4773.96C4152.65,4797.4 4304.18,5607.38 4406.42,6077.69C4497.66,6497.36 4624.54,6895.8 4813.57,7101.29C4958.15,7258.47 5136.46,7316.07 5359.97,7215.53C5590.9,7111.65 5653.01,6887.59 5599.94,6598.48C5530.29,6219.01 5258.18,5719.23 5006.42,5289.16C4896.79,5101.89 4791.42,4927.96 4709.78,4783.57C4656.39,4689.13 4630.81,4651.65 4604.21,4588.21C4622.91,4603.16 5252.54,5233.65 5661.92,5611.56C6024.42,5946.19 6412.36,6236.28 6742.15,6305.15C6985.69,6356.01 7201.4,6295.67 7363.78,6065.25C7490,5886.14 7443.09,5696.86 7269.73,5510.06C7048.77,5271.97 6609.11,5032.71 6147.79,4820.67C5622.66,4579.3 5223.76,4438.62 4953.29,4302.23C4953.29,4302.23 5692.75,4426.36 6271.96,4525.93C6779.95,4613.25 7291.37,4664.07 7635.97,4588.21C7896.72,4530.81 8067.08,4401.12 8102.43,4182.11C8134.53,3983.32 8050.24,3844.85 7882.6,3753.06C7668.57,3635.86 7298.89,3602.21 6877.55,3615.78C6097.16,3640.92 5375.21,3783.09 4953.29,3810.09C5148.74,3729.91 5242.62,3662.54 5609.33,3539.14C6252.04,3322.86 6988.53,3046.44 7277.33,2746.35C7427,2590.82 7468.3,2427.49 7366.33,2262.37C7242.79,2062.3 7048.61,2010.88 6812,2064.11C6603.25,2111.07 6358.03,2244.22 6105.97,2418.06C6038.66,2464.48 5970.79,2513.8 5902.94,2565.03C5455.31,2903.02 5008.42,3324.25 4727.8,3546.04C4676.69,3586.43 4876.98,3194.73 5056.81,2923.32C5333.99,2505 5632.89,2014.04 5713.39,1626.31C5773.8,1335.3 5715.47,1098.49 5473.98,967.837C5392.54,923.782 5315.69,908.524 5243.57,915.438C5138.11,925.549 5040.63,984.02 4953.29,1083.3C4826.82,1227.06 4718.92,1461.23 4627.28,1732.83C4442.46,2280.64 4277.07,2984.86 4166.83,3357.32C4146,3427.69 3975.21,2635.16 3866.2,2139.56C3769.12,1698.2 3634.75,1280.73 3437.23,1069.62C3286.35,908.358 3101.28,852.925 2870.51,966.487C2594.83,1102.15 2555.54,1386.86 2659.16,1733.3C2797.52,2195.85 3189.95,2774.59 3465.83,3181.18C3551.66,3307.68 3625.84,3417.13 3676.42,3500.49Z" style="fill:rgb(255,177,190);fill-rule:nonzero;stroke:black;stroke-width:19.05px;"/>
                    </g>
                    <g transform="matrix(0.95012,0,0,0.810354,2709.04,-1688.59)">
                        <path d="M1534.15,6475.99C1138.41,6475.99 823.479,6750.62 823.479,7079.56C823.479,7408.51 1138.41,7683.14 1534.15,7683.14C1929.9,7683.14 2244.83,7408.51 2244.83,7079.56C2244.83,6750.62 1929.9,6475.99 1534.15,6475.99Z" style="fill:rgb(248,89,0);stroke:black;stroke-width:17.26px;"/>
                    </g>
                </g>
                <g id="Layer5">
                </g>
            </g>
            <g id="Untitled-6.svg1" serif:id="Untitled 6.svg">
            </g>
        </g>
    </g>
</svg>
