<?xml version="1.0" encoding="UTF-8" standalone="no"?>
<svg
   width="1811.9784"
   height="1845.0413"
   viewBox="0 0 1811.9784 1845.0413"
   version="1.1"
   xml:space="preserve"
   style="clip-rule:evenodd;fill-rule:evenodd;stroke-linecap:round;stroke-linejoin:round;stroke-miterlimit:2.13415"
   id="svg841"
   sodipodi:docname="apps.svg"
   inkscape:version="1.1.1 (c3084ef, 2021-09-22)"
   xmlns:inkscape="http://www.inkscape.org/namespaces/inkscape"
   xmlns:sodipodi="http://sodipodi.sourceforge.net/DTD/sodipodi-0.dtd"
   xmlns="http://www.w3.org/2000/svg"
   xmlns:svg="http://www.w3.org/2000/svg"><defs
   id="defs845" /><sodipodi:namedview
   id="namedview843"
   pagecolor="#ffffff"
   bordercolor="#666666"
   borderopacity="1.0"
   inkscape:pageshadow="2"
   inkscape:pageopacity="0.0"
   inkscape:pagecheckerboard="0"
   showgrid="false"
   inkscape:zoom="0.0568"
   inkscape:cx="906.69014"
   inkscape:cy="915.49296"
   inkscape:window-width="1312"
   inkscape:window-height="790"
   inkscape:window-x="0"
   inkscape:window-y="25"
   inkscape:window-maximized="0"
   inkscape:current-layer="svg841" />
    <g
   id="Layer16"
   transform="translate(-4094.014,-4077.4828)">
        <g
   transform="matrix(0.466579,0,0,0.524336,2603.25,2838.06)"
   id="g826">
            <path
   d="m 6882.18,2945.06 c 0,-212.38 -193.78,-384.81 -432.45,-384.81 h -623.39 c -238.68,0 -432.45,172.43 -432.45,384.81 v 554.73 c 0,212.38 193.77,384.81 432.45,384.81 h 623.39 c 238.67,0 432.45,-172.43 432.45,-384.81 z"
   style="fill:none;stroke:#000000;stroke-width:392.91px"
   id="path824" />
        </g>
        <g
   transform="matrix(0.466579,0,0,0.524336,1669,2838.06)"
   id="g830">
            <path
   d="m 6882.18,2945.06 c 0,-212.38 -193.78,-384.81 -432.45,-384.81 h -623.39 c -238.68,0 -432.45,172.43 -432.45,384.81 v 554.73 c 0,212.38 193.77,384.81 432.45,384.81 h 623.39 c 238.67,0 432.45,-172.43 432.45,-384.81 z"
   style="fill:none;stroke:#000000;stroke-width:392.91px"
   id="path828" />
        </g>
        <g
   transform="matrix(0.466579,0,0,0.524336,1669,3782.68)"
   id="g834">
            <path
   d="m 6882.18,2945.06 c 0,-212.38 -193.78,-384.81 -432.45,-384.81 h -623.39 c -238.68,0 -432.45,172.43 -432.45,384.81 v 554.73 c 0,212.38 193.77,384.81 432.45,384.81 h 623.39 c 238.67,0 432.45,-172.43 432.45,-384.81 z"
   style="fill:none;stroke:#000000;stroke-width:392.91px"
   id="path832" />
        </g>
        <g
   transform="matrix(0.466579,0,0,0.524336,2603.25,3782.68)"
   id="g838">
            <path
   d="m 6882.18,2945.06 c 0,-212.38 -193.78,-384.81 -432.45,-384.81 h -623.39 c -238.68,0 -432.45,172.43 -432.45,384.81 v 554.73 c 0,212.38 193.77,384.81 432.45,384.81 h 623.39 c 238.67,0 432.45,-172.43 432.45,-384.81 z"
   style="fill:none;stroke:#000000;stroke-width:392.91px"
   id="path836" />
        </g>
    </g>
</svg>
