<?xml version="1.0" encoding="UTF-8" standalone="no"?>
<svg
   width="2024.4589"
   height="1668.6377"
   viewBox="0 0 2024.4589 1668.6377"
   version="1.1"
   xml:space="preserve"
   style="clip-rule:evenodd;fill-rule:evenodd;stroke-linecap:round;stroke-linejoin:round;stroke-miterlimit:2.13415"
   id="svg842"
   sodipodi:docname="upload-icon.svg"
   inkscape:version="1.1.1 (c3084ef, 2021-09-22)"
   xmlns:inkscape="http://www.inkscape.org/namespaces/inkscape"
   xmlns:sodipodi="http://sodipodi.sourceforge.net/DTD/sodipodi-0.dtd"
   xmlns="http://www.w3.org/2000/svg"
   xmlns:svg="http://www.w3.org/2000/svg"><defs
   id="defs846" /><sodipodi:namedview
   id="namedview844"
   pagecolor="#ffffff"
   bordercolor="#666666"
   borderopacity="1.0"
   inkscape:pageshadow="2"
   inkscape:pageopacity="0.0"
   inkscape:pagecheckerboard="0"
   showgrid="false"
   inkscape:snap-intersection-paths="false"
   inkscape:zoom="0.11726863"
   inkscape:cx="822.89697"
   inkscape:cy="1321.7516"
   inkscape:window-width="1440"
   inkscape:window-height="900"
   inkscape:window-x="0"
   inkscape:window-y="0"
   inkscape:window-maximized="0"
   inkscape:current-layer="g839" />
    <g
   id="Layer33"
   transform="translate(-3987.7531,-4137.4997)">
        <g
   id="Layer15"
   transform="matrix(0,-0.737967,-0.737967,0,8689.84,8652.8)"
   style="fill:#000080">
            <g
   transform="matrix(-0.69289703,-0.37888004,-0.3042636,-0.69070824,9328.3607,10197.255)"
   id="g826"
   style="fill:#000080">
                <path
   d="M 5000,4089.34 3537.43,5686.56"
   style="fill:#000080;stroke:#95b8ff;stroke-width:281.28px;stroke-opacity:1"
   id="path824" />
            </g>
            <g
   transform="matrix(0.337711,-0.642941,0.615656,-0.282327,403.618,8878.56)"
   id="g830"
   style="fill:#000080">
                <path
   d="M 5000,4089.34 3537.43,5686.56"
   style="fill:#000080;stroke:#95b8ff;stroke-width:281.28px;stroke-opacity:1"
   id="path828" />
            </g>
            <g
   transform="matrix(-0.321643,-0.693426,0.351254,-0.63497,4096.23,11062.5)"
   id="g834"
   style="fill:#000080">
                <path
   d="M 5000,4089.34 3537.43,5686.56"
   style="fill:#000080;stroke:#95b8ff;stroke-width:281.24px;stroke-opacity:1"
   id="path832" />
            </g>
        </g>
        <g
   transform="matrix(0.565428,0,0,0.676377,2233.94,1763.9)"
   id="g839"
   style="fill:#ffff00">
            <path
   d="m 3699.29,5340.55 c -476.99,-20.13 -520.06,-488.84 -346.7,-788.1 173.35,-299.26 524.89,-437.53 825.15,-349.07 73.26,-303.4 369.18,-537.69 715.89,-537.69 222.3255,0 423.7665,96.3384 559.0052,245.4615 75.6621,83.4299 130.6023,183.3818 156.8848,292.2285 300.26,-88.46 651.8,49.81 825.16,349.07 173.35,299.26 114.76,764.39 -341.09,788.1"
   style="fill:#000080;fill-opacity:0;stroke:#95b8ff;stroke-width:312.81px;stroke-opacity:1"
   id="path837"
   sodipodi:nodetypes="cccssccc" />
        </g>
    </g>
</svg>
