<?xml version="1.0" encoding="UTF-8" standalone="no"?><!DOCTYPE svg PUBLIC "-//W3C//DTD SVG 1.1//EN" "http://www.w3.org/Graphics/SVG/1.1/DTD/svg11.dtd"><svg width="100%" height="100%" viewBox="0 0 8334 8334" version="1.1" xmlns="http://www.w3.org/2000/svg" xmlns:xlink="http://www.w3.org/1999/xlink" xml:space="preserve" xmlns:serif="http://www.serif.com/" style="fill-rule:evenodd;clip-rule:evenodd;stroke-linejoin:round;stroke-miterlimit:2;"><g><circle cx="4166.67" cy="4166.67" r="3920.22" style="fill:#ffd100;"/><path d="M6688.11,4127.95c-86.335,1473.46 -1159.02,2649.75 -2488.63,2668.79l-32.813,0.235c-1391.29,0 -2504.2,-1111.48 -2521.56,-2669.02l20.765,-0c106.053,-0 192.155,-86.102 192.155,-192.155c-0,-106.053 -86.102,-192.155 -192.155,-192.155l-439.432,-0c-106.053,-0 -192.155,86.102 -192.155,192.155c-0,106.053 86.102,192.155 192.155,192.155l31.325,-0c0,1799.59 1306.11,3055.77 2908.9,3055.77l37.511,-0.264c1528.45,-21.651 2782.97,-1359.97 2871.63,-3055.51l31.083,-0c106.053,-0 192.154,-86.102 192.154,-192.155c0,-106.053 -86.101,-192.155 -192.154,-192.155l-439.432,-0c-106.053,-0 -192.155,86.102 -192.155,192.155c-0,106.053 86.102,192.155 192.155,192.155l20.651,-0Zm-1423.04,-1752.8c26.238,-86.239 108.194,-145.47 201.283,-145.47c93.089,0 175.045,59.231 201.283,145.47l99.615,327.421l353.283,-9.701c93.051,-2.555 176.718,54.402 205.484,139.887c28.766,85.484 -4.249,179.048 -81.084,229.792l-291.717,192.656l118.725,321.425c31.271,84.66 1.024,179.093 -74.287,231.925c-75.31,52.832 -177.671,51.427 -251.395,-3.451l-279.907,-208.352l-279.906,208.352c-73.725,54.878 -176.086,56.283 -251.396,3.451c-75.311,-52.832 -105.558,-147.265 -74.287,-231.925l118.725,-321.425l-291.716,-192.656c-76.836,-50.744 -109.851,-144.308 -81.085,-229.792c28.766,-85.485 112.433,-142.442 205.484,-139.887l353.283,9.701l99.615,-327.421Zm-2599.37,9.701c26.238,-86.239 108.194,-145.47 201.283,-145.47c93.089,-0 175.045,59.231 201.283,145.47l99.615,327.42l353.283,-9.7c93.052,-2.556 176.718,54.402 205.484,139.886c28.766,85.485 -4.249,179.049 -81.084,229.793l-291.717,192.656l118.725,321.424c31.271,84.661 1.024,179.093 -74.287,231.926c-75.31,52.832 -177.671,51.427 -251.395,-3.451l-279.907,-208.352l-279.906,208.352c-73.725,54.878 -176.085,56.283 -251.396,3.451c-75.31,-52.833 -105.558,-147.265 -74.287,-231.926l118.726,-321.424l-291.717,-192.656c-76.836,-50.744 -109.851,-144.308 -81.085,-229.793c28.766,-85.484 112.433,-142.442 205.484,-139.886l353.283,9.7l99.615,-327.42Z" style="fill-rule:nonzero;"/></g></svg>