<?xml version="1.0" encoding="UTF-8" standalone="no"?>
<svg
   width="1882.6298"
   height="1877.3898"
   viewBox="0 0 1882.6298 1877.3898"
   version="1.1"
   xml:space="preserve"
   style="clip-rule:evenodd;fill-rule:evenodd;stroke-linecap:round;stroke-linejoin:round;stroke-miterlimit:2.13415"
   id="svg829"
   sodipodi:docname="cog.svg"
   inkscape:version="1.1.1 (c3084ef, 2021-09-22)"
   xmlns:inkscape="http://www.inkscape.org/namespaces/inkscape"
   xmlns:sodipodi="http://sodipodi.sourceforge.net/DTD/sodipodi-0.dtd"
   xmlns="http://www.w3.org/2000/svg"
   xmlns:svg="http://www.w3.org/2000/svg"><defs
   id="defs833" /><sodipodi:namedview
   id="namedview831"
   pagecolor="#ffffff"
   bordercolor="#666666"
   borderopacity="1.0"
   inkscape:pageshadow="2"
   inkscape:pageopacity="0.0"
   inkscape:pagecheckerboard="0"
   showgrid="false"
   inkscape:zoom="0.0571"
   inkscape:cx="936.95271"
   inkscape:cy="936.95271"
   inkscape:window-width="1312"
   inkscape:window-height="793"
   inkscape:window-x="175"
   inkscape:window-y="25"
   inkscape:window-maximized="0"
   inkscape:current-layer="Layer32" />
    <g
   transform="matrix(0.707749,0,0,0.794827,-3440.5239,-1840.871)"
   id="g827"
   style="fill:#cccccc">
        <g
   id="Layer32"
   style="fill:#cccccc">
            <path
   d="m 6388.14,2480.62 c -71.02,-46.66 -322.8,-46.66 -393.81,0 -71.01,46.66 -32.27,279.95 -32.27,279.95 -108.45,25.72 -210.46,69.46 -300.66,128.93 0,0 -180.69,-172.43 -265.93,-152.08 -85.25,20.34 -242.23,195.63 -245.54,274.16 -3.31,78.53 225.69,197.01 225.69,197.01 -45.04,91.54 -70.23,189.83 -74.26,289.7 0,0 -264.05,18.28 -299.33,90.31 -35.29,72.03 20.74,290.61 87.63,341.87 66.89,51.27 313.69,-34.27 313.69,-34.27 52.3,88.42 122.89,167.24 208.07,232.32 0,0 -148.58,195.22 -107.34,264.69 41.25,69.48 268.09,166.75 354.81,152.15 86.72,-14.6 165.49,-239.76 165.49,-239.76 110.24,18.73 223.46,18.73 333.71,0 0,0 78.77,225.16 165.49,239.76 86.71,14.6 313.56,-82.67 354.8,-152.15 41.25,-69.47 -107.33,-264.69 -107.33,-264.69 85.18,-65.08 155.77,-143.9 208.06,-232.32 0,0 246.81,85.54 313.7,34.27 66.88,-51.26 122.91,-269.84 87.63,-341.87 -35.29,-72.03 -299.33,-90.31 -299.33,-90.31 -4.03,-99.87 -29.23,-198.16 -74.26,-289.7 0,0 228.99,-118.48 225.68,-197.01 -3.31,-78.53 -160.29,-253.82 -245.53,-274.16 -85.25,-20.35 -265.93,152.08 -265.93,152.08 -90.2,-59.47 -192.21,-103.21 -300.66,-128.93 0,0 38.74,-233.29 -32.27,-279.95 z m -196.91,684.16 c 224.36,0 406.51,162.19 406.51,361.97 0,199.78 -182.15,361.97 -406.51,361.97 -224.36,0 -406.51,-162.19 -406.51,-361.97 0,-199.78 182.15,-361.97 406.51,-361.97 z"
   style="fill-opacity:0;stroke:#000000;stroke-width:259.12px;fill:#b3b3b3;stroke-opacity:0.25498891"
   id="path824" />
        </g>
    </g>
</svg>
